<svg width="20" height="20" viewBox="0 0 20 20" fill="none" xmlns="http://www.w3.org/2000/svg">
<path d="M2.65252 11.6666C2.6324 11.6669 2.61242 11.6632 2.59376 11.6557C2.57511 11.6481 2.55816 11.6369 2.54393 11.6227C2.52971 11.6084 2.51848 11.5915 2.51094 11.5728C2.5034 11.5542 2.49968 11.5342 2.50002 11.5141C2.57502 6.98159 5.90419 3.33325 10 3.33325C14.0967 3.33325 17.425 6.98159 17.4984 11.5141C17.4987 11.534 17.4951 11.5538 17.4877 11.5723C17.4803 11.5907 17.4693 11.6076 17.4553 11.6218C17.4414 11.636 17.4247 11.6472 17.4063 11.6549C17.388 11.6626 17.3683 11.6666 17.3484 11.6666C17.3185 11.6664 17.2892 11.6577 17.2641 11.6415C17.239 11.6252 17.2191 11.6021 17.2067 11.5749C16.7692 10.6391 15.89 9.99992 14.875 9.99992C13.8875 9.99992 13.3634 10.6058 12.9534 11.5016C12.9313 11.5504 12.8958 11.592 12.8509 11.6212C12.806 11.6505 12.7536 11.6662 12.7 11.6666C12.6416 11.6648 12.585 11.6462 12.5368 11.6131C12.4886 11.58 12.451 11.5338 12.4284 11.4799C12.0334 10.6074 10.9159 9.99992 10 9.99992C9.08419 9.99992 7.96669 10.6083 7.57169 11.4799C7.54905 11.5338 7.5114 11.58 7.46324 11.6131C7.41508 11.6462 7.35843 11.6648 7.30002 11.6666C7.24643 11.6662 7.19408 11.6505 7.14917 11.6212C7.10427 11.592 7.0687 11.5504 7.04669 11.5016C6.63669 10.6058 6.11335 9.99992 5.12502 9.99992C4.11085 9.99992 3.23085 10.6391 2.79335 11.5749C2.78095 11.6021 2.76102 11.6252 2.73592 11.6415C2.71081 11.6577 2.68159 11.6664 2.65169 11.6666H2.65252Z" stroke="white" stroke-width="2" stroke-linecap="round" stroke-linejoin="round"/>
<path d="M10.0001 10V16.6667C10.0001 17.1087 9.82449 17.5326 9.51193 17.8452C9.19936 18.1577 8.77544 18.3333 8.33341 18.3333C7.89139 18.3333 7.46746 18.1577 7.1549 17.8452C6.84234 17.5326 6.66675 17.1087 6.66675 16.6667V15.8333" stroke="white" stroke-width="2" stroke-linecap="round" stroke-linejoin="round"/>
<path d="M10 3.33341V1.66675" stroke="white" stroke-width="2" stroke-linecap="round" stroke-linejoin="round"/>
</svg>
