<svg width="18" height="19" viewBox="0 0 18 19" fill="none" xmlns="http://www.w3.org/2000/svg">
<path d="M16.8333 17.5001L13.095 13.7551L16.8333 17.5001ZM15.1667 8.75008C15.1667 10.6287 14.4204 12.4304 13.092 13.7588C11.7636 15.0871 9.96195 15.8334 8.08333 15.8334C6.20472 15.8334 4.40304 15.0871 3.07466 13.7588C1.74628 12.4304 1 10.6287 1 8.75008C1 6.87146 1.74628 5.06979 3.07466 3.74141C4.40304 2.41303 6.20472 1.66675 8.08333 1.66675C9.96195 1.66675 11.7636 2.41303 13.092 3.74141C14.4204 5.06979 15.1667 6.87146 15.1667 8.75008V8.75008Z" stroke="url(#paint0_linear_0_834)" stroke-width="1.66667" stroke-linecap="round" stroke-linejoin="round"/>
<defs>
<linearGradient id="paint0_linear_0_834" x1="1" y1="1.66675" x2="16.8333" y2="17.5001" gradientUnits="userSpaceOnUse">
<stop stop-color="#1E92E6"/>
<stop offset="1" stop-color="#073170"/>
</linearGradient>
</defs>
</svg>
